<?xml version="1.0" encoding="utf-8"?>
<!-- Generator: Adobe Illustrator 16.0.0, SVG Export Plug-In . SVG Version: 6.00 Build 0)  -->
<!DOCTYPE svg PUBLIC "-//W3C//DTD SVG 1.1//EN" "http://www.w3.org/Graphics/SVG/1.1/DTD/svg11.dtd">
<svg version="1.1" id="Ebene_1" xmlns="http://www.w3.org/2000/svg" xmlns:xlink="http://www.w3.org/1999/xlink" x="0px" y="0px"
	 width="96.667px" height="96.667px" viewBox="0 0 96.667 96.667" enable-background="new 0 0 96.667 96.667" xml:space="preserve">
<g id="XMLID_1_">
	<g>
		<path fill="rgb(255,255,255)" d="M-0.002,48.33C-0.002,21.64,21.638,0,48.328,0C75.029,0,96.667,21.64,96.667,48.33
			c0,26.7-21.639,48.339-48.339,48.339C21.639,96.669-0.002,75.029-0.002,48.33z M49.33,20.519c-2.48,0-4.5,2.021-4.5,4.5v34.73
			l-9.61-9.621c-1.76-1.759-4.61-1.759-6.37,0c-1.75,1.761-1.75,4.611,0,6.361l17.3,17.299c0.04,0.041,0.09,0.07,0.13,0.11
			c0.18,0.16,0.36,0.319,0.55,0.45c0.13,0.09,0.27,0.15,0.41,0.22c0.12,0.07,0.24,0.14,0.37,0.19c0.17,0.07,0.34,0.119,0.51,0.16
			c0.11,0.029,0.22,0.08,0.33,0.1c0.29,0.061,0.589,0.09,0.88,0.09c0.299,0,0.59-0.029,0.89-0.09c0.11-0.02,0.221-0.07,0.329-0.1
			c0.171-0.051,0.341-0.09,0.511-0.16c0.131-0.051,0.25-0.131,0.381-0.2c0.13-0.069,0.271-0.13,0.39-0.21
			c0.221-0.141,0.41-0.311,0.601-0.49c0.03-0.02,0.062-0.04,0.08-0.07c0.01,0,0.01,0,0.01,0L69.81,56.49
			c0.881-0.881,1.32-2.031,1.32-3.181s-0.439-2.3-1.32-3.181c-1.75-1.759-4.6-1.759-6.359,0l-9.619,9.611V25.019
			C53.83,22.541,51.819,20.519,49.33,20.519z"/>
		<path fill="rgb(150,150,150)" d="M44.829,25.019c0-2.479,2.02-4.5,4.5-4.5c2.489,0,4.5,2.021,4.5,4.5V59.74l9.619-9.611
			c1.76-1.759,4.609-1.759,6.359,0c0.881,0.881,1.32,2.031,1.32,3.181s-0.439,2.3-1.32,3.181l-17.29,17.299c0,0,0,0-0.011,0
			c-0.02,0.03-0.049,0.051-0.079,0.07c-0.188,0.18-0.38,0.35-0.601,0.49c-0.119,0.08-0.26,0.141-0.39,0.21
			c-0.131,0.069-0.25,0.149-0.381,0.2c-0.17,0.07-0.341,0.109-0.511,0.16c-0.108,0.029-0.219,0.08-0.33,0.1
			c-0.299,0.061-0.59,0.09-0.889,0.09c-0.291,0-0.59-0.029-0.88-0.09c-0.11-0.02-0.22-0.07-0.33-0.1
			c-0.17-0.041-0.34-0.09-0.51-0.16c-0.13-0.051-0.25-0.12-0.37-0.19c-0.14-0.069-0.28-0.13-0.41-0.22
			c-0.19-0.131-0.37-0.29-0.55-0.45c-0.04-0.04-0.09-0.069-0.13-0.11l-17.3-17.299c-1.75-1.75-1.75-4.601,0-6.361
			c1.76-1.759,4.61-1.759,6.37,0l9.61,9.621v-34.73H44.829z"/>
	</g>
</g>
</svg>
