<?xml version="1.0" encoding="utf-8"?>
<!-- Generator: Adobe Illustrator 16.0.0, SVG Export Plug-In . SVG Version: 6.00 Build 0)  -->
<!DOCTYPE svg PUBLIC "-//W3C//DTD SVG 1.1//EN" "http://www.w3.org/Graphics/SVG/1.1/DTD/svg11.dtd">
<svg version="1.1" id="Ebene_1" xmlns="http://www.w3.org/2000/svg" xmlns:xlink="http://www.w3.org/1999/xlink" x="0px" y="0px"
	 width="96.667px" height="96.667px" viewBox="0 0 96.667 96.667" enable-background="new 0 0 96.667 96.667" xml:space="preserve">
<g id="XMLID_1_">
	<g>
		<path fill="#1D1D1B" d="M48.337,0c26.69,0,48.33,21.64,48.33,48.33c0,26.7-21.64,48.34-48.33,48.34
			c-26.7,0-48.34-21.64-48.34-48.34C-0.002,21.641,21.638,0,48.337,0z M76.148,49.331c0-2.48-2.021-4.5-4.5-4.5h-34.73l9.62-9.61
			c1.76-1.76,1.76-4.61,0-6.37c-1.76-1.75-4.61-1.75-6.36,0l-17.3,17.3c-0.04,0.04-0.07,0.09-0.11,0.13
			c-0.16,0.18-0.32,0.36-0.45,0.55c-0.09,0.13-0.15,0.27-0.22,0.41c-0.07,0.12-0.14,0.24-0.19,0.37c-0.07,0.17-0.12,0.34-0.16,0.51
			c-0.03,0.11-0.08,0.22-0.1,0.33c-0.06,0.29-0.09,0.59-0.09,0.88c0,0.3,0.03,0.59,0.09,0.89c0.02,0.11,0.07,0.221,0.1,0.33
			c0.05,0.17,0.09,0.34,0.16,0.51c0.05,0.131,0.13,0.25,0.2,0.381c0.07,0.13,0.13,0.27,0.21,0.39c0.14,0.22,0.31,0.41,0.49,0.6
			c0.02,0.03,0.04,0.061,0.07,0.08c0,0.01,0,0.01,0,0.01l17.3,17.29c0.88,0.881,2.03,1.32,3.18,1.32c1.15,0,2.3-0.439,3.18-1.32
			c1.76-1.75,1.76-4.6,0-6.359l-9.61-9.62h34.72C74.127,53.831,76.148,51.821,76.148,49.331z"/>
		<path fill="#FFFFFF" d="M71.648,44.831c2.479,0,4.5,2.02,4.5,4.5c0,2.49-2.021,4.5-4.5,4.5h-34.72l9.61,9.62
			c1.76,1.76,1.76,4.609,0,6.359c-0.88,0.881-2.03,1.32-3.18,1.32c-1.15,0-2.3-0.439-3.18-1.32l-17.3-17.29c0,0,0,0,0-0.01
			c-0.03-0.02-0.05-0.05-0.07-0.08c-0.18-0.189-0.35-0.38-0.49-0.6c-0.08-0.12-0.14-0.26-0.21-0.39c-0.07-0.131-0.15-0.25-0.2-0.381
			c-0.07-0.17-0.11-0.34-0.16-0.51c-0.03-0.109-0.08-0.22-0.1-0.33c-0.06-0.3-0.09-0.59-0.09-0.89c0-0.29,0.03-0.59,0.09-0.88
			c0.02-0.11,0.07-0.22,0.1-0.33c0.04-0.17,0.09-0.34,0.16-0.51c0.05-0.13,0.12-0.25,0.19-0.37c0.07-0.14,0.13-0.28,0.22-0.41
			c0.13-0.19,0.29-0.37,0.45-0.55c0.04-0.04,0.07-0.09,0.11-0.13l17.3-17.3c1.75-1.75,4.6-1.75,6.36,0c1.76,1.76,1.76,4.61,0,6.37
			l-9.62,9.61H71.648z"/>
	</g>
	<g>
	</g>
</g>
</svg>
