<?xml version="1.0" encoding="utf-8"?>
<!-- Generator: Adobe Illustrator 16.0.0, SVG Export Plug-In . SVG Version: 6.00 Build 0)  -->
<!DOCTYPE svg PUBLIC "-//W3C//DTD SVG 1.1//EN" "http://www.w3.org/Graphics/SVG/1.1/DTD/svg11.dtd">
<svg version="1.1" id="Ebene_1" xmlns="http://www.w3.org/2000/svg" xmlns:xlink="http://www.w3.org/1999/xlink" x="0px" y="0px"
	 width="80.667px" height="80.667px" viewBox="0 0 96.667 96.667" enable-background="new 0 0 96.667 96.667" xml:space="preserve">
<g>
	<g id="XMLID_1_">
		<g>
			<path fill="white" d="M75.603,30.664h-54.54c1.66-5.85,7.03-10.14,13.41-10.14h27.72
				C68.574,20.523,73.944,24.813,75.603,30.664z"/>
			<path fill="#FFFFFF" d="M76.143,35.604v26.59c0,7.699-6.25,13.93-13.949,13.93h-27.72c-7.7,0-13.95-6.23-13.95-13.93v-26.59
				H76.143z M59.994,63.164v-3.32h-7.62l2.84-2.2c3.101-2.399,4.601-3.88,4.601-6.8c0-3.28-2.301-5.43-6.021-5.43
				c-3.12,0-4.8,1.28-6.52,3.63l2.7,2.17c1.301-1.6,2.221-2.35,3.57-2.35c1.37,0,2.35,0.8,2.35,2.279c0,1.45-0.85,2.4-3.02,4.2
				l-5.83,4.771v3.05H59.994z M43.523,63.164v-17.62h-2.63l-5.02,1.5l0.8,3.15l3.05-0.75v13.72H43.523z"/>
			<path fill="none" d="M48.333,0.003c26.69,0,48.33,21.63,48.33,48.33c0,26.69-21.64,48.33-48.33,48.33
				c-26.69,0-48.33-21.64-48.33-48.33C0.003,21.633,21.644,0.003,48.333,0.003z M76.143,62.194v-26.59h-55.62v26.59
				c0,7.699,6.25,13.93,13.95,13.93h27.72C69.893,76.124,76.143,69.893,76.143,62.194z M21.063,30.664h54.54
				c-1.659-5.85-7.029-10.14-13.409-10.14h-27.72C28.093,20.523,22.724,24.813,21.063,30.664z"/>
			<path fill="none" d="M59.994,59.843v3.32h-12.95v-3.05l5.83-4.771c2.17-1.8,3.02-2.75,3.02-4.2
				c0-1.479-0.979-2.279-2.35-2.279c-1.35,0-2.27,0.75-3.57,2.35l-2.7-2.17c1.72-2.35,3.4-3.63,6.52-3.63
				c3.72,0,6.021,2.15,6.021,5.43c0,2.92-1.5,4.4-4.601,6.8l-2.84,2.2H59.994z"/>
			<polygon fill="none" points="43.523,45.543 43.523,63.164 39.724,63.164 39.724,49.444 36.673,50.194 35.874,47.043 
				40.894,45.543 			"/>
		</g>
		<g>
		</g>
	</g>
</g>
</svg>
