<?xml version="1.0" encoding="utf-8"?>
<!-- Generator: Adobe Illustrator 16.0.0, SVG Export Plug-In . SVG Version: 6.00 Build 0)  -->
<!DOCTYPE svg PUBLIC "-//W3C//DTD SVG 1.1//EN" "http://www.w3.org/Graphics/SVG/1.1/DTD/svg11.dtd">
<svg version="1.1" id="Ebene_1" xmlns="http://www.w3.org/2000/svg" xmlns:xlink="http://www.w3.org/1999/xlink" x="0px" y="0px"
	 width="96.667px" height="96.667px" viewBox="0 0 96.667 96.667" enable-background="new 0 0 96.667 96.667" xml:space="preserve">
<g id="XMLID_1_">
	<g>
		<path fill="rgb(234, 100, 157)" d="M68.018,29.161c1.76,1.76,1.76,4.61,0,6.37l-13.32,13.32l13.32,13.32c1.76,1.76,1.76,4.61,0,6.37
			c-0.881,0.87-2.03,1.31-3.181,1.31c-1.149,0-2.3-0.439-3.18-1.31l-13.32-13.33l-13.33,13.33c-0.87,0.87-2.03,1.31-3.18,1.31
			s-2.3-0.439-3.18-1.31c-1.76-1.76-1.76-4.61,0-6.37l13.32-13.32l-13.32-13.32c-1.76-1.76-1.76-4.61,0-6.37
			c1.76-1.75,4.61-1.75,6.36,0l13.33,13.32l13.32-13.32C63.417,27.411,66.268,27.411,68.018,29.161z"/>
		<path fill="rgb(255, 255, 255)" d="M48.328,0c26.7,0,48.34,21.64,48.34,48.33c0,26.7-21.64,48.34-48.34,48.34
			c-26.69,0-48.33-21.64-48.33-48.34C-0.002,21.641,21.638,0,48.328,0z M68.018,35.53c1.76-1.76,1.76-4.61,0-6.37
			c-1.75-1.75-4.601-1.75-6.36,0l-13.32,13.32l-13.33-13.32c-1.75-1.75-4.6-1.75-6.36,0c-1.76,1.76-1.76,4.61,0,6.37l13.32,13.32
			l-13.32,13.32c-1.76,1.76-1.76,4.61,0,6.37c0.88,0.87,2.03,1.31,3.18,1.31s2.31-0.439,3.18-1.31l13.33-13.33l13.32,13.33
			c0.88,0.87,2.03,1.31,3.18,1.31c1.15,0,2.3-0.439,3.181-1.31c1.76-1.76,1.76-4.61,0-6.37l-13.32-13.32L68.018,35.53z"/>
	</g>
	<g>
	</g>
</g>
</svg>
