<?xml version="1.0" encoding="utf-8"?>
<!-- Generator: Adobe Illustrator 16.0.0, SVG Export Plug-In . SVG Version: 6.00 Build 0)  -->
<!DOCTYPE svg PUBLIC "-//W3C//DTD SVG 1.1//EN" "http://www.w3.org/Graphics/SVG/1.1/DTD/svg11.dtd">
<svg version="1.1" id="Ebene_1" xmlns="http://www.w3.org/2000/svg" xmlns:xlink="http://www.w3.org/1999/xlink" x="0px" y="0px"
	 width="96.667px" height="96.667px" viewBox="0 0 96.667 96.667" enable-background="new 0 0 96.667 96.667" xml:space="preserve">
<g id="XMLID_1_">
	<g>
		<path fill="#FFFFFF" d="M80.183,61.052c0,0-5.109,4.75-11.649,4.75c-2.05,0-3.99-0.46-5.7-1.1c-1.22,1.05-7.24,5.89-14.72,5.89
			c-6.92,0-12.92-4.149-14.81-5.6c-1.46,0.479-3.07,0.81-4.79,0.81c-6.54,0-12.03-4.75-12.03-4.75c0-6.54,5.3-11.84,11.84-11.84
			c0.03,0,0.05,0,0.08,0c3.62,0.021,6.86,1.68,9.01,4.26c2.73-2.59,6.41-4.189,10.46-4.189c4.32,0,8.21,1.819,10.979,4.71
			c2.16-2.9,5.601-4.78,9.49-4.78C74.883,49.212,80.183,54.512,80.183,61.052z"/>
		<path fill="#FFFFFF" d="M68.463,32.072c4.32,0,7.83,3.5,7.83,7.83c0,4.32-3.51,7.83-7.83,7.83c-4.33,0-7.83-3.51-7.83-7.83
			C60.633,35.572,64.133,32.072,68.463,32.072z"/>
		<path fill="#FFFFFF" d="M58.074,37.333c0,5.55-4.5,10.05-10.05,10.05c-0.04,0-0.07,0-0.11,0c-5.12-0.06-9.33-3.94-9.88-8.93
			c-0.04-0.37-0.06-0.74-0.06-1.12c0-5.55,4.5-10.05,10.05-10.05C53.574,27.283,58.074,31.783,58.074,37.333z"/>
		<path fill="#1D1D1B" d="M68.463,32.072c-4.33,0-7.83,3.5-7.83,7.83c0,4.32,3.5,7.83,7.83,7.83c4.32,0,7.83-3.51,7.83-7.83
			C76.293,35.572,72.784,32.072,68.463,32.072z M68.343,49.212c-3.89,0-7.33,1.88-9.49,4.78c-2.77-2.891-6.659-4.71-10.979-4.71
			l0.04-1.9c0.04,0,0.07,0,0.11,0c5.55,0,10.05-4.5,10.05-10.05s-4.5-10.05-10.05-10.05c-5.55,0-10.05,4.5-10.05,10.05
			c0,0.38,0.02,0.75,0.06,1.12l-1.86,0.26c-0.57-3.77-3.82-6.64-7.73-6.64c-4.33,0-7.83,3.5-7.83,7.83c0,4.32,3.5,7.83,7.83,7.83
			l-0.04,1.48c-0.03,0-0.05,0-0.08,0c-6.54,0-11.84,5.3-11.84,11.84c0,0,5.49,4.75,12.03,4.75c1.72,0,3.33-0.33,4.79-0.81
			c1.89,1.45,7.89,5.6,14.81,5.6c7.48,0,13.5-4.84,14.72-5.89c1.71,0.64,3.65,1.1,5.7,1.1c6.54,0,11.649-4.75,11.649-4.75
			C80.183,54.512,74.883,49.212,68.343,49.212z M48.333,0.002c26.69,0,48.33,21.64,48.33,48.33c0,26.7-21.64,48.34-48.33,48.34
			c-26.69,0-48.33-21.64-48.33-48.34C0.003,21.643,21.644,0.002,48.333,0.002z"/>
		<path fill="#1D1D1B" d="M38.034,38.453c0.55,4.99,4.76,8.87,9.88,8.93l-0.04,1.9c-4.05,0-7.73,1.6-10.46,4.189
			c-2.15-2.58-5.39-4.239-9.01-4.26l0.04-1.48c4.32,0,7.82-3.51,7.82-7.83c0-0.4-0.03-0.8-0.09-1.19L38.034,38.453z"/>
		<path fill="#FFFFFF" d="M36.264,39.902c0,4.32-3.5,7.83-7.82,7.83c-4.33,0-7.83-3.51-7.83-7.83c0-4.33,3.5-7.83,7.83-7.83
			c3.91,0,7.16,2.87,7.73,6.64C36.233,39.103,36.264,39.502,36.264,39.902z"/>
	</g>
	<g>
	</g>
</g>
</svg>
