<?xml version="1.0" encoding="utf-8"?>
<!-- Generator: Adobe Illustrator 16.0.0, SVG Export Plug-In . SVG Version: 6.00 Build 0)  -->
<!DOCTYPE svg PUBLIC "-//W3C//DTD SVG 1.1//EN" "http://www.w3.org/Graphics/SVG/1.1/DTD/svg11.dtd">
<svg version="1.1" id="Ebene_1" xmlns="http://www.w3.org/2000/svg" xmlns:xlink="http://www.w3.org/1999/xlink" x="0px" y="0px"
	 width="143.833px" height="126.667px" viewBox="-7.667 0 110.833 96.667" enable-background="new -7.667 0 110.833 96.667"
	 xml:space="preserve">
<path fill="rgb(212, 214, 217)" d="M35.9,70.136c0,0-8.399,7.811-19.143,7.811S-3,70.136-3,70.136c0-10.742,8.708-19.449,19.45-19.449
	C27.193,50.687,35.9,59.394,35.9,70.136z"/>
<circle fill="rgb(212, 214, 217)" cx="16.643" cy="35.391" r="12.861"/>
<path fill="rgb(212, 214, 217)" d="M78.885,50.687c-10.742,0-19.45,8.707-19.45,19.449c0,0,9.015,7.811,19.758,7.811s19.143-7.811,19.143-7.811
	C98.335,59.394,89.628,50.687,78.885,50.687z"/>
<circle fill="rgb(212, 214, 217)" cx="79.078" cy="35.391" r="12.861"/>
<rect x="16.45" y="77.947" fill="none" width="31.217" height="10.223"/>
<rect x="47.667" y="77.947" fill="none" width="31.217" height="10.223"/>
<path fill="white" d="M72.998,78c0,0-10.938,10.17-24.93,10.17c-13.991,0-25.73-10.17-25.73-10.17c0-13.99,11.34-25.33,25.33-25.33
	C61.658,52.669,72.998,64.009,72.998,78z"/>
<circle fill="white" cx="47.917" cy="32.75" r="16.75"/>
</svg>
