<svg version="1.1" id="Ebene_1" xmlns="http://www.w3.org/2000/svg" xmlns:xlink="http://www.w3.org/1999/xlink" x="0px" y="0px"
               width="40px" height="40px" viewBox="0 0 96.667 96.667" enable-background="new 0 0 96.667 96.667" xml:space="preserve">
            <g id="XMLID_1_">
              <g>
                <path fill = "none" class = "icon_tick" d="M41.778,67.31c-0.17,0.061-0.34,0.101-0.52,0.141c-0.08,0.02-0.16,0.05-0.24,0.06
                  c-0.25,0.05-0.51,0.07-0.77,0.07c-0.32,0-0.64-0.03-0.95-0.101c-0.09-0.02-0.19-0.06-0.28-0.09c-0.21-0.06-0.42-0.12-0.62-0.199
                  c-0.12-0.061-0.23-0.141-0.34-0.2c-0.17-0.101-0.34-0.181-0.49-0.29c-0.12-0.09-0.22-0.2-0.33-0.3
                  c-0.13-0.12-0.27-0.221-0.39-0.36l-14.31-16.41c-1.64-1.87-1.44-4.71,0.43-6.35c1.87-1.63,4.72-1.44,6.35,0.44l11.4,13.061
                  l29.05-24.65c1.89-1.61,4.729-1.37,6.34,0.52c1.609,1.89,1.37,4.73-0.521,6.34l-32.43,27.52c-0.12,0.101-0.25,0.181-0.37,0.26
                  c-0.1,0.07-0.18,0.141-0.28,0.2c-0.15,0.08-0.3,0.141-0.44,0.21C41.968,67.22,41.877,67.27,41.778,67.31z"/>
                
                <path class = "icon_circle" fill = "rgb(71, 183, 229)" d="M48.328,0c26.7,0,48.34,21.64,48.34,48.33c0,26.7-21.64,48.34-48.34,48.34
                  c-26.69,0-48.33-21.64-48.33-48.34C-0.002,21.641,21.638,0,48.328,0z M75.587,38.99c1.891-1.61,2.13-4.45,0.521-6.34
                  c-1.61-1.89-4.45-2.13-6.34-0.52l-29.05,24.65l-11.4-13.061c-1.63-1.88-4.48-2.07-6.35-0.44c-1.87,1.64-2.07,4.48-0.43,6.35
                  l14.31,16.41c0.12,0.14,0.26,0.24,0.39,0.36c0.11,0.1,0.21,0.21,0.33,0.3c0.15,0.109,0.32,0.189,0.49,0.29
                  c0.11,0.06,0.22,0.14,0.34,0.2c0.2,0.079,0.41,0.14,0.62,0.199c0.09,0.03,0.19,0.07,0.28,0.09c0.31,0.07,0.63,0.101,0.95,0.101
                  c0.26,0,0.52-0.021,0.77-0.07c0.08-0.01,0.16-0.04,0.24-0.06c0.18-0.04,0.35-0.08,0.52-0.141c0.1-0.04,0.19-0.09,0.29-0.13
                  c0.14-0.069,0.29-0.13,0.44-0.21c0.1-0.06,0.18-0.13,0.28-0.2c0.12-0.079,0.25-0.159,0.37-0.26L75.587,38.99z"/>
              </g>
              <g>
              </g>
            </g>
            </svg>