<?xml version="1.0" encoding="utf-8"?>
<!-- Generator: Adobe Illustrator 16.0.0, SVG Export Plug-In . SVG Version: 6.00 Build 0)  -->
<!DOCTYPE svg PUBLIC "-//W3C//DTD SVG 1.1//EN" "http://www.w3.org/Graphics/SVG/1.1/DTD/svg11.dtd">
<svg version="1.1" id="Ebene_1" xmlns="http://www.w3.org/2000/svg" xmlns:xlink="http://www.w3.org/1999/xlink" x="0px" y="0px"
	 width="80px" height="80px" viewBox="0 0 96.667 96.667" enable-background="new 0 0 96.667 96.667" xml:space="preserve">
<g>
	<g id="XMLID_1_">
		<g>
			<path fill="rgb(26, 159, 220)" d="M56.748,27.311c10.38,4.65,15.01,16.83,10.37,27.209c-1.26,2.79-3.06,5.15-5.22,7.04l-13.55,13.601
				l-14.851-14.79l0.01-0.01c-5.65-5.87-7.5-14.8-3.96-22.69C34.198,27.3,46.377,22.661,56.748,27.311z M56.078,49.571
				c1.92-4.28,0.01-9.3-4.27-11.22c-4.28-1.92-9.311-0.01-11.23,4.27c-1.91,4.28,0,9.3,4.28,11.22
				C49.137,55.76,54.158,53.85,56.078,49.571z"/>
			<path fill="none" d="M48.328,0c26.7,0,48.34,21.64,48.34,48.33c0,26.7-21.64,48.34-48.34,48.34
				c-26.69,0-48.33-21.64-48.33-48.34C-0.002,21.641,21.638,0,48.328,0z M67.118,54.52c4.64-10.379,0.01-22.56-10.37-27.209
				c-10.37-4.65-22.55-0.01-27.2,10.36c-3.54,7.89-1.69,16.82,3.96,22.69l-0.01,0.01l14.851,14.79l13.55-13.601
				C64.058,59.67,65.858,57.31,67.118,54.52z"/>
			<path fill="none" d="M51.808,38.351c4.279,1.92,6.189,6.94,4.27,11.22c-1.92,4.279-6.94,6.189-11.22,4.27
				c-4.28-1.92-6.19-6.94-4.28-11.22C42.498,38.34,47.528,36.431,51.808,38.351z"/>
		</g>
		<g>
		</g>
	</g>
</g>
</svg>
