<?xml version="1.0" encoding="utf-8"?>
<!-- Generator: Adobe Illustrator 16.0.0, SVG Export Plug-In . SVG Version: 6.00 Build 0)  -->
<!DOCTYPE svg PUBLIC "-//W3C//DTD SVG 1.1//EN" "http://www.w3.org/Graphics/SVG/1.1/DTD/svg11.dtd">
<svg version="1.1" id="Ebene_1" xmlns="http://www.w3.org/2000/svg" xmlns:xlink="http://www.w3.org/1999/xlink" x="0px" y="0px"
	 width="96.667px" height="96.667px" viewBox="0 0 96.667 96.667" enable-background="new 0 0 96.667 96.667" xml:space="preserve">
<g id="XMLID_1_">
	<g>
		<path fill="#FFFFFF" d="M72.998,78c0,0-10.938,10.17-24.93,10.17c-13.991,0-25.73-10.17-25.73-10.17
			c0-13.99,11.34-25.33,25.33-25.33C61.658,52.669,72.998,64.009,72.998,78z"/>
		<circle fill="#FFFFFF" cx="47.917" cy="32.75" r="16.75"/>
		<path fill="rgba(255,255,255,0)" d="M48.337,0c26.69,0,48.331,21.64,48.331,48.33c0,26.701-21.641,48.339-48.331,48.339
			c-26.7,0-48.34-21.639-48.34-48.339C-0.002,21.641,21.638,0,48.337,0z M48.068,88.169c13.99,0,24.93-10.17,24.93-10.17
			c0-13.99-11.34-25.33-25.33-25.33c-13.99,0-25.33,11.34-25.33,25.33C22.338,78,34.078,88.169,48.068,88.169z M64.667,32.75
			c0-9.25-7.5-16.75-16.75-16.75c-9.25,0-16.75,7.5-16.75,16.75s7.5,16.75,16.75,16.75C57.167,49.5,64.667,42,64.667,32.75z"/>
	</g>
</g>
</svg>
