<?xml version="1.0" encoding="utf-8"?>
<!-- Generator: Adobe Illustrator 16.0.0, SVG Export Plug-In . SVG Version: 6.00 Build 0)  -->
<!DOCTYPE svg PUBLIC "-//W3C//DTD SVG 1.1//EN" "http://www.w3.org/Graphics/SVG/1.1/DTD/svg11.dtd">
<svg version="1.1" id="Ebene_1" xmlns="http://www.w3.org/2000/svg" xmlns:xlink="http://www.w3.org/1999/xlink" x="0px" y="0px"
	 width="96.667px" height="96.667px" viewBox="0 0 96.667 96.667" enable-background="new 0 0 96.667 96.667" xml:space="preserve">
<g id="XMLID_1_">
	<g>
		<path fill="rgb(150,150,150)" d="M71.677,44.351c2.48,0,4.5,2.01,4.5,4.5c0,2.48-2.02,4.5-4.5,4.5h-18.84v18.841c0,2.479-2.02,4.5-4.5,4.5
			c-2.49,0-4.5-2.021-4.5-4.5V53.35h-18.84c-2.49,0-4.5-2.02-4.5-4.5c0-2.49,2.01-4.5,4.5-4.5h18.84V25.51c0-2.49,2.01-4.5,4.5-4.5
			c2.48,0,4.5,2.01,4.5,4.5v18.84H71.677z"/>
		<path fill="rgb(255,255,255)" d="M48.328,0c26.7,0,48.34,21.64,48.34,48.33c0,26.7-21.64,48.34-48.34,48.34
			c-26.69,0-48.33-21.64-48.33-48.34C-0.002,21.641,21.638,0,48.328,0z M76.177,48.85c0-2.49-2.02-4.5-4.5-4.5h-18.84V25.51
			c0-2.49-2.02-4.5-4.5-4.5c-2.49,0-4.5,2.01-4.5,4.5v18.84h-18.84c-2.49,0-4.5,2.01-4.5,4.5c0,2.48,2.01,4.5,4.5,4.5h18.84v18.841
			c0,2.479,2.01,4.5,4.5,4.5c2.48,0,4.5-2.021,4.5-4.5V53.35h18.84C74.158,53.35,76.177,51.331,76.177,48.85z"/>
	</g>
	<g>
	</g>
</g>
</svg>
