<?xml version="1.0" encoding="utf-8"?>
<!-- Generator: Adobe Illustrator 16.0.0, SVG Export Plug-In . SVG Version: 6.00 Build 0)  -->
<!DOCTYPE svg PUBLIC "-//W3C//DTD SVG 1.1//EN" "http://www.w3.org/Graphics/SVG/1.1/DTD/svg11.dtd">
<svg version="1.1" id="Ebene_1" xmlns="http://www.w3.org/2000/svg" xmlns:xlink="http://www.w3.org/1999/xlink" x="0px" y="0px"
	 width="180px" height="180px" viewBox="0 0 298 298" enable-background="new 0 0 298 298" xml:space="preserve">
<path fill="white" d="M76.864,187.684c0.459,0.098,0.908,0.219,1.348,0.357c0.801-1.09,1.688-2.104,2.654-3.029
	c-1.023-0.426-2.098-0.769-3.223-1.008c-9.842-2.088-19.518,4.197-21.608,14.041c-0.27,1.27-0.395,2.536-0.396,3.784h-0.006v18.226
	h3.757v-18.226h0.003c0.002-0.992,0.101-1.999,0.314-3.009C61.368,191.006,69.052,186.02,76.864,187.684z"/>
<path fill="white" d="M111.668,82.667l-0.014,0.046c-4.57-1.364-9.44-1.988-14.479-1.639c-22.51,1.565-39.49,21.079-37.932,43.589
	c1.564,22.513,21.078,39.492,43.588,37.926c17.402-1.206,31.457-13.157,36.236-28.912l0.044,0.012l11.631-39.523L111.668,82.667z
	 M101.168,138.648c-9.284,0.646-17.335-6.363-17.978-15.646c-0.648-9.287,6.359-17.338,15.646-17.982
	c9.285-0.645,17.337,6.362,17.98,15.65C117.46,129.951,110.454,138.005,101.168,138.648z"/>
<path fill="white" d="M234.678,118.924c-1.681-22.498-21.279-39.378-43.783-37.695c-17.115,1.275-30.955,12.933-35.871,28.339L155,109.56
	l-11.783,39.903l36.54,10.789c5.343,1.982,11.167,2.911,17.22,2.459C219.479,161.027,236.355,141.43,234.678,118.924z
	 M195.191,138.776c-9.289,0.694-17.373-6.272-18.067-15.552c-0.692-9.284,6.269-17.371,15.558-18.066
	c9.281-0.69,17.363,6.273,18.062,15.557C211.434,129.996,204.471,138.084,195.191,138.776z"/>
<path fill="white" d="M181.232,184.004c-9.842-2.088-19.519,4.197-21.607,14.041c-2.092,9.844,4.191,19.518,14.037,21.609
	c9.842,2.09,19.52-4.191,21.611-14.039C197.359,195.771,191.08,186.098,181.232,184.004z M191.6,204.84
	c-1.66,7.812-9.343,12.801-17.162,11.141c-7.812-1.66-12.801-9.342-11.14-17.16c1.659-7.813,9.341-12.801,17.152-11.137
	C188.271,189.338,193.259,197.02,191.6,204.84z"/>
<rect x="199.427" y="191.922" fill="white" width="3.757" height="28.133"/>
<rect x="0.943" y="81.051" fill="none" width="54.661" height="81.562"/>
<rect x="0.943" y="162.611" fill="none" width="54.661" height="20.393"/>
<rect x="0.943" y="183.004" fill="none" width="54.661" height="20.393"/>
<rect x="0.943" y="203.396" fill="none" width="54.661" height="20.392"/>
<rect x="243.357" y="81.051" fill="none" width="54.662" height="81.562"/>
<rect x="243.357" y="162.611" fill="none" width="54.662" height="20.393"/>
<rect x="243.357" y="183.004" fill="none" width="54.662" height="20.393"/>
<rect x="243.357" y="203.396" fill="none" width="54.662" height="20.392"/>
<rect x="243.357" y="223.787" fill="none" width="54.662" height="20.393"/>
<rect x="0.942" y="223.787" fill="none" width="54.662" height="20.393"/>
<rect x="0.942" y="40.195" fill="none" width="54.662" height="20.392"/>
<rect x="0.942" y="60.587" fill="none" width="54.662" height="20.392"/>
<rect x="243.357" y="40.195" fill="none" width="54.662" height="20.392"/>
<rect x="243.357" y="60.587" fill="none" width="54.662" height="20.392"/>
<path fill="white" d="M100.772,184.004c-9.844-2.088-19.52,4.197-21.61,14.041s4.194,19.518,14.038,21.609c9.844,2.09,19.52-4.191,21.609-14.039
	C116.902,195.771,110.618,186.098,100.772,184.004z M111.138,204.84c-1.662,7.812-9.342,12.801-17.158,11.141
	c-7.814-1.66-12.805-9.342-11.145-17.16c1.659-7.813,9.341-12.801,17.155-11.137C107.809,189.338,112.797,197.02,111.138,204.84z"/>
<path fill="white" d="M140.978,184.004c-9.842-2.088-19.52,4.197-21.607,14.041c-2.092,9.844,4.191,19.518,14.035,21.608
	c9.844,2.091,19.521-4.19,21.613-14.038C157.109,195.771,150.826,186.098,140.978,184.004z M151.346,204.84
	c-1.662,7.812-9.343,12.801-17.159,11.141c-7.814-1.66-12.807-9.342-11.145-17.16c1.658-7.813,9.342-12.801,17.156-11.137
	C148.017,189.338,153.004,197.02,151.346,204.84z"/>
<path fill="white" d="M239.023,205.964c-2.133,7.156-9.431,11.595-16.859,10.017c-6.812-1.444-11.469-7.457-11.462-14.15h28.935v0.002h3.752
	c0.008-8.428-5.856-16.003-14.435-17.827c-9.845-2.088-19.522,4.197-21.61,14.041c-2.094,9.845,4.19,19.519,14.041,21.609
	c9.723,2.062,19.271-4.048,21.516-13.69L239.023,205.964L239.023,205.964z M228.173,187.684c5.501,1.164,9.587,5.312,10.958,10.392
	h-27.915C213.195,190.697,220.613,186.074,228.173,187.684z"/>
<path fill="white" d="M195.673,220.027l-7.978-7.973l0,0l-1.338-1.339l-3.809-3.807l-0.027,0.026c-0.293-0.201-0.643-0.328-1.024-0.328
	c-1.043,0-1.89,0.848-1.89,1.887c0,0.387,0.125,0.736,0.328,1.033l-0.035,0.033l0.312,0.312l-0.003,0.002l4.458,4.455h0.001
	l5.723,5.722L195.673,220.027z"/>
<path fill="white" d="M203.199,184.752c0-1.035-0.844-1.878-1.879-1.878c-1.034,0-1.879,0.843-1.879,1.878h-0.016v5.16h3.758v-5.006
	C203.188,184.855,203.199,184.805,203.199,184.752z"/>
</svg>
