<?xml version="1.0" encoding="utf-8"?>
<!-- Generator: Adobe Illustrator 16.0.0, SVG Export Plug-In . SVG Version: 6.00 Build 0)  -->
<!DOCTYPE svg PUBLIC "-//W3C//DTD SVG 1.1//EN" "http://www.w3.org/Graphics/SVG/1.1/DTD/svg11.dtd">
<svg version="1.1" id="Ebene_1" xmlns="http://www.w3.org/2000/svg" xmlns:xlink="http://www.w3.org/1999/xlink" x="0px" y="0px"
	 width="120.667px" height="120.667px" viewBox="0 0 96.667 96.667" enable-background="new 0 0 96.667 96.667" xml:space="preserve">
<g id="XMLID_1_">
	<g>
		<path fill="#FFFFFF" d="M72.998,78c0,0-10.939,10.17-24.93,10.17S22.338,78,22.338,78c0-13.99,11.34-25.33,25.33-25.33
			C61.658,52.67,72.998,64.01,72.998,78z"/>
		<circle fill="#FFFFFF" cx="47.917" cy="32.75" r="16.75"/>
		<path fill="none" d="M48.337,0c26.69,0,48.33,21.64,48.33,48.33c0,26.7-21.64,48.34-48.33,48.34
			c-26.7,0-48.34-21.64-48.34-48.34C-0.002,21.641,21.638,0,48.337,0z M48.068,88.17c13.99,0,24.93-10.17,24.93-10.17
			c0-13.99-11.34-25.33-25.33-25.33c-13.99,0-25.33,11.34-25.33,25.33C22.338,78,34.078,88.17,48.068,88.17z M64.667,32.75
			c0-9.25-7.5-16.75-16.75-16.75s-16.75,7.5-16.75,16.75s7.5,16.75,16.75,16.75S64.667,42,64.667,32.75z"/>
	</g>
	<g>
	</g>
</g>
</svg>
