<?xml version="1.0" encoding="utf-8"?>
<!-- Generator: Adobe Illustrator 16.0.0, SVG Export Plug-In . SVG Version: 6.00 Build 0)  -->
<!DOCTYPE svg PUBLIC "-//W3C//DTD SVG 1.1//EN" "http://www.w3.org/Graphics/SVG/1.1/DTD/svg11.dtd">
<svg version="1.1" id="Ebene_1" xmlns="http://www.w3.org/2000/svg" xmlns:xlink="http://www.w3.org/1999/xlink" x="0px" y="0px"
	 width="100px" height="100px" viewBox="0 0 100 100" enable-background="new 0 0 100 100" xml:space="preserve">
<path fill="#FFFFFF" d="M86.077,9.446H13.922c-2.473,0-4.476,2.003-4.476,4.477v72.154c0,2.473,2.003,4.478,4.476,4.478h38.846
	V59.144h-10.57v-12.24h10.57v-9.027c0-10.476,6.397-16.181,15.744-16.181c4.476,0,8.322,0.333,9.443,0.482v10.948l-6.482,0.003
	c-5.082,0-6.064,2.415-6.064,5.959v7.815H77.53l-1.579,12.24H65.409v31.411h20.668c2.472,0,4.476-2.005,4.476-4.478V13.923
	C90.553,11.45,88.549,9.446,86.077,9.446z"/>
</svg>
